<?xml version="1.0" standalone="no"?>
<!DOCTYPE svg PUBLIC "-//W3C//DTD SVG 20010904//EN"
 "http://www.w3.org/TR/2001/REC-SVG-20010904/DTD/svg10.dtd">
<svg version="1.0" xmlns="http://www.w3.org/2000/svg"
 width="225.000000pt" height="225.000000pt" viewBox="0 0 225.000000 225.000000"
 preserveAspectRatio="xMidYMid meet">

<g transform="translate(0.000000,225.000000) scale(0.100000,-0.100000)"
fill="#000000" stroke="none">
<path d="M600 2243 c-38 -12 -66 -31 -108 -72 -43 -43 -44 -45 -38 -94 3 -28
9 -53 13 -56 5 -3 10 -33 11 -66 3 -50 9 -65 33 -91 l29 -30 45 42 c25 23 45
46 45 51 0 11 -44 23 -84 23 -11 0 -30 7 -40 15 -20 15 -20 15 0 29 10 8 35
18 54 21 26 5 37 3 47 -12 8 -10 34 -39 58 -65 25 -26 45 -52 45 -58 0 -5 10
-21 23 -36 40 -46 39 -65 -10 -111 -41 -40 -83 -56 -83 -33 0 6 -6 10 -14 10
-8 0 -16 10 -18 22 -2 14 -17 30 -40 42 -23 12 -38 27 -38 38 0 10 -5 18 -11
18 -6 0 -8 -9 -4 -20 10 -31 -20 -25 -44 9 -27 38 -81 71 -115 71 l-26 0 0
100 0 100 -55 0 -55 0 -1 -82 c-1 -46 -4 -72 -8 -58 -3 14 -13 25 -21 25 -11
0 -16 16 -21 65 -3 36 -6 51 -7 34 -1 -17 -5 -46 -9 -65 -5 -28 -7 -30 -14
-14 -7 17 -8 18 -8 3 -1 -21 -12 -23 -29 -6 -20 20 -15 -12 7 -48 21 -35 13
-67 -11 -46 -8 6 -19 7 -27 3 -7 -5 -22 -6 -32 -4 -21 6 -26 -12 -6 -21 8 -3
6 -9 -7 -20 -13 -11 -15 -16 -6 -16 10 0 9 -4 -3 -18 -15 -16 -17 -53 -17
-307 0 -279 1 -288 18 -271 18 15 21 14 55 -19 21 -20 37 -41 38 -48 0 -7 7 4
15 24 13 31 18 35 44 31 23 -3 30 0 30 12 0 22 16 20 42 -6 13 -13 27 -23 33
-24 5 0 16 -2 23 -2 6 -1 12 -8 12 -15 0 -9 10 -12 31 -9 30 4 31 3 27 -24 -3
-16 -9 -37 -13 -47 -6 -14 -4 -16 11 -11 11 4 26 16 35 27 17 21 17 21 49 -6
38 -33 47 -33 69 -5 17 20 21 21 67 8 27 -7 62 -20 78 -27 18 -10 26 -10 21
-3 -5 8 0 11 16 8 14 -2 29 -14 37 -31 7 -15 22 -33 32 -39 17 -11 17 -13 2
-25 -15 -13 -15 -13 4 -8 15 4 34 -5 65 -31 24 -20 53 -40 64 -46 11 -5 29
-14 40 -21 11 -7 41 -24 65 -39 l46 -26 -14 -154 c-8 -84 -16 -155 -18 -157
-4 -4 -136 49 -144 58 -3 3 -19 16 -37 28 l-31 22 -6 -24 c-7 -29 -16 -31 -57
-9 -17 8 -33 14 -35 11 -10 -10 35 -45 76 -58 36 -11 46 -19 48 -39 2 -20 1
-22 -7 -10 -9 13 -11 13 -11 -2 0 -10 10 -23 23 -29 12 -6 32 -20 44 -31 14
-13 39 -22 70 -24 32 -2 43 0 33 6 -11 7 -11 10 -2 10 20 0 25 -26 17 -88 -4
-31 -10 -50 -13 -42 -3 8 -11 21 -19 28 -7 8 -11 24 -8 36 2 11 2 15 -1 8 -4
-9 -9 -10 -19 -2 -10 9 -16 7 -24 -8 -8 -16 -18 -19 -50 -15 -127 15 -531 -53
-531 -88 0 -10 52 0 60 11 3 4 16 9 30 12 14 3 57 13 97 22 88 19 387 26 405
8 18 -18 -8 -40 -59 -48 -26 -4 -85 -20 -132 -36 -47 -16 -166 -44 -265 -63
-98 -19 -181 -37 -185 -40 -9 -9 132 5 214 21 39 8 111 21 160 29 50 8 122 25
160 38 93 32 158 47 167 39 4 -4 3 -50 -2 -102 -5 -52 -10 -110 -10 -127 l0
-33 635 0 635 0 0 1125 0 1125 -524 0 -525 0 -5 -42 c-3 -24 -8 -59 -11 -78
-4 -19 -10 -71 -13 -114 -4 -44 -12 -81 -17 -83 -15 -5 -41 45 -48 91 -3 21
-17 50 -30 65 -14 14 -53 56 -87 94 l-63 67 -80 0 -81 0 29 -30 c18 -19 31
-26 36 -19 4 6 9 1 13 -13 6 -23 36 -60 70 -88 18 -14 19 -14 7 7 -9 18 -9 22
1 18 13 -5 21 -18 52 -83 9 -18 20 -31 26 -27 5 3 10 -1 10 -10 0 -8 4 -23 10
-33 11 -19 37 -91 50 -137 l8 -30 2 30 c2 24 5 19 15 -25 8 -36 14 -46 15 -30
2 24 3 24 10 -5 13 -52 10 -217 -4 -250 -13 -29 -14 -27 -10 30 2 33 1 52 -2
43 -8 -28 -19 -21 -20 12 -1 16 3 27 8 24 11 -7 5 70 -8 121 l-8 30 -7 -25
c-8 -24 -8 -23 -7 5 2 41 -22 135 -34 135 -6 0 -8 6 -5 13 3 8 1 20 -5 28 -7
11 -8 9 -3 -6 7 -23 -4 -14 -19 17 -6 12 -27 30 -46 41 -19 10 -37 23 -38 28
-2 5 -7 7 -11 5 -4 -3 -8 1 -8 9 0 10 6 10 26 -3 25 -16 26 -16 11 3 -28 38
-54 65 -63 65 -6 0 -6 -5 -1 -13 5 -7 1 -4 -8 6 -11 12 -18 14 -18 7 0 -13
-37 24 -103 104 -35 42 -42 46 -80 45 -23 0 -49 -3 -57 -6z m315 -63 c19 -36
19 -46 1 -31 -12 10 -29 61 -20 61 2 0 10 -13 19 -30z m-185 -87 c19 -13 31
-23 27 -23 -9 0 -117 61 -117 66 0 6 53 -19 90 -43z m40 28 c0 -5 23 -23 50
-41 63 -41 65 -50 3 -13 -65 37 -90 63 -63 63 6 0 10 -4 10 -9z m-512 -163
c-1 -48 -6 -68 -15 -68 -10 0 -13 19 -12 80 2 66 5 78 16 68 10 -8 13 -32 11
-80z m672 -32 c0 -12 -5 -7 -19 24 -11 24 -11 24 3 6 9 -11 16 -24 16 -30z
m147 -18 c-3 -7 -5 -2 -5 12 0 14 2 19 5 13 2 -7 2 -19 0 -25z m-793 7 c-4 -8
-8 -15 -10 -15 -2 0 -4 7 -4 15 0 8 4 15 10 15 5 0 7 -7 4 -15z m670 -51 c3
-8 2 -12 -4 -9 -6 3 -10 10 -10 16 0 14 7 11 14 -7z m51 -65 c11 -17 -1 -21
-15 -4 -8 9 -8 15 -2 15 6 0 14 -5 17 -11z m45 -21 c0 -6 -7 -5 -15 2 -8 7
-15 17 -15 22 0 6 7 5 15 -2 8 -7 15 -17 15 -22z m710 -70 c0 20 4 23 33 20
17 -2 35 -7 39 -13 5 -6 8 -5 8 3 0 20 38 14 45 -8 7 -21 -9 -50 -27 -50 -5 0
-13 10 -18 23 -6 15 -9 17 -9 6 -1 -24 -29 -31 -40 -11 -6 10 -11 12 -11 5 0
-9 -12 -12 -35 -10 -39 2 -40 4 -24 44 l11 28 14 -30 c12 -27 13 -28 14 -7z
m-1283 1 c6 -6 13 -24 15 -41 2 -24 12 -36 42 -53 21 -12 43 -30 48 -40 8 -13
7 -16 -1 -11 -6 4 -11 4 -11 -1 0 -4 -20 -7 -44 -5 -36 3 -43 7 -39 20 12 30
-15 2 -39 -41 -17 -29 -22 -50 -17 -67 4 -14 7 -19 8 -12 1 7 17 12 46 12 43
0 45 -2 64 -42 11 -24 17 -47 14 -51 -3 -5 -22 -6 -42 -2 -20 3 -55 8 -78 11
-23 3 -48 13 -56 22 -35 40 -60 176 -39 209 4 6 19 14 34 18 20 5 31 2 45 -14
23 -28 33 -27 33 3 0 14 5 28 10 31 12 7 13 42 2 49 -5 3 -20 7 -35 10 -32 6
-46 -10 -17 -19 11 -4 18 -11 14 -16 -3 -5 -10 -7 -15 -4 -5 4 -9 1 -9 -5 0
-6 -4 -8 -10 -5 -5 3 -10 2 -10 -3 0 -5 -9 -12 -21 -15 -19 -5 -20 -4 -4 19 9
15 11 24 4 24 -6 0 -9 6 -7 12 9 25 87 30 115 7z m753 9 c0 -10 3 -9 9 1 7 11
11 10 20 -5 9 -17 10 -17 11 -1 0 14 9 17 56 17 47 0 55 -3 50 -16 -3 -9 -6
-22 -6 -30 0 -8 -4 -14 -10 -14 -5 0 -10 11 -10 25 0 18 -5 25 -20 25 -23 0
-27 -15 -5 -24 8 -3 12 -12 9 -20 -7 -19 -62 -15 -75 5 -7 12 -9 12 -10 -1 0
-10 -3 -8 -9 5 -7 17 -9 17 -9 3 -1 -10 -5 -18 -10 -18 -5 0 -8 14 -7 30 1 28
16 44 16 18z m167 -40 c-2 -13 -4 -5 -4 17 -1 22 1 32 4 23 2 -10 2 -28 0 -40z
m45 22 c-4 -30 -22 -43 -22 -16 0 8 -3 21 -6 30 -4 11 0 16 13 16 16 0 19 -5
15 -30z m39 -20 c5 0 9 11 9 25 0 25 2 26 58 23 53 -3 57 -5 60 -29 2 -17 -3
-29 -13 -33 -24 -9 -35 1 -35 32 0 31 -16 19 -23 -18 -4 -25 -4 -25 -6 2 -1
31 -21 49 -21 20 0 -23 -25 -46 -40 -37 -5 3 -9 21 -9 38 2 30 2 31 6 5 2 -16
9 -28 14 -28z m179 38 c0 -9 3 -9 12 0 20 20 28 13 27 -25 0 -21 -3 -32 -6
-25 -4 10 -8 10 -19 1 -11 -9 -14 -8 -15 7 0 11 -3 14 -6 7 -9 -24 -20 -13
-15 17 4 29 22 43 22 18z m329 -5 c-9 -10 -8 -13 2 -13 11 0 11 -2 -1 -10 -10
-6 -11 -10 -2 -10 6 0 12 -4 12 -10 0 -19 -31 -10 -38 11 -8 20 -10 20 -24 5
-23 -23 -28 -20 -28 13 0 28 2 29 45 29 36 -1 43 -4 34 -15z m48 0 c14 -17 14
-17 9 0 -3 9 -1 17 4 17 6 0 10 -13 10 -30 0 -33 -17 -40 -27 -12 -6 14 -8 13
-14 -8 -6 -21 -7 -20 -8 13 -1 41 5 46 26 20z m63 0 c0 9 5 17 11 17 7 0 9
-10 7 -25 -3 -14 -2 -25 2 -25 4 0 11 11 14 25 4 14 10 25 15 25 11 0 26 -59
17 -67 -3 -4 -6 -1 -6 5 0 7 -13 9 -35 5 -26 -4 -35 -2 -36 8 0 8 -4 5 -9 -6
-7 -16 -9 -11 -9 20 0 37 1 39 14 21 13 -17 15 -18 15 -3z m-1183 -13 c-4 -16
6 -99 18 -160 4 -19 3 -21 -5 -10 -5 8 -10 25 -10 36 0 12 -6 24 -14 27 -19 7
-41 47 -26 47 5 0 10 -6 10 -14 0 -8 5 -18 12 -22 8 -5 9 2 5 24 -4 18 -10 45
-13 60 -5 22 -2 29 11 29 11 0 15 -6 12 -17z m116 5 c-3 -9 -8 -14 -10 -11 -3
3 -2 9 2 15 9 16 15 13 8 -4z m24 -122 c-3 -10 -5 -2 -5 17 0 19 2 27 5 18 2
-10 2 -26 0 -35z m-540 -76 c-2 -7 -16 -13 -30 -15 -26 -3 -27 -2 -16 22 10
21 15 23 31 15 11 -6 17 -16 15 -22z m509 -2 c13 -43 10 -45 -11 -5 -17 33
-18 40 -7 40 4 0 12 -16 18 -35z m-69 -27 l2 -43 -15 34 c-13 32 -11 42 11 51
1 0 1 -19 2 -42z m-60 -30 c-3 -7 -5 -2 -5 12 0 14 2 19 5 13 2 -7 2 -19 0
-25z m-510 -164 c-3 -3 -12 -4 -19 -1 -8 3 -5 6 6 6 11 1 17 -2 13 -5z m859
-144 c8 0 14 -4 14 -10 0 -5 -11 -10 -24 -10 -29 0 -43 -17 -27 -33 9 -9 16
-8 31 1 11 6 24 12 30 12 16 0 12 -30 -5 -36 -8 -4 -15 -11 -15 -17 0 -18 60
46 66 70 4 13 10 23 15 23 5 0 6 -8 3 -17 -4 -13 0 -11 12 5 19 25 39 30 30 7
-3 -8 -1 -15 4 -15 5 0 -2 -11 -15 -25 -14 -13 -25 -29 -25 -35 0 -6 10 1 23
15 15 19 27 24 40 19 10 -4 15 -10 10 -13 -5 -3 -14 -19 -21 -34 -9 -22 -17
-27 -32 -22 -11 4 -20 2 -20 -4 0 -6 -4 -11 -10 -11 -5 0 -10 8 -10 18 0 13
-2 14 -9 3 -6 -8 -14 -10 -22 -5 -8 5 -24 7 -36 5 -18 -2 -23 3 -23 18 0 15
-6 21 -24 21 -24 0 -36 -16 -36 -51 0 -11 -4 -18 -9 -15 -10 7 -4 52 11 83 6
13 8 26 5 29 -10 10 26 34 41 29 8 -3 20 -5 28 -5z m284 5 c0 -2 -10 -23 -21
-45 -12 -23 -19 -43 -17 -45 3 -3 11 6 18 20 14 26 34 33 45 15 4 -6 1 -19 -6
-28 -11 -13 -8 -12 9 2 12 11 22 14 22 8 0 -17 -47 -45 -64 -39 -8 3 -17 1
-20 -6 -3 -8 -7 -9 -13 -1 -4 6 -16 13 -26 17 -24 9 -18 39 10 52 12 5 27 20
34 32 11 20 29 32 29 18z m190 -60 c0 -9 -7 -18 -15 -21 -8 -4 -15 -11 -15
-18 0 -6 12 2 26 18 17 19 38 30 60 33 32 3 46 -9 24 -22 -5 -3 -10 -14 -10
-23 0 -11 7 -5 20 15 17 29 22 31 57 26 21 -3 41 -10 44 -15 3 -5 9 -3 12 6 4
9 13 16 22 16 17 0 20 -16 4 -26 -6 -3 -8 -17 -5 -30 8 -29 -6 -31 -59 -8 -32
13 -40 13 -46 2 -9 -16 -119 -24 -119 -8 0 5 5 10 10 10 6 0 10 5 10 12 0 6
-7 4 -18 -5 -23 -21 -39 -21 -50 -1 -8 15 -10 15 -15 0 -4 -9 -14 -16 -23 -16
-15 0 -15 2 2 22 19 22 19 22 0 8 -11 -8 -26 -31 -34 -50 -21 -49 -28 -18 -8
34 13 35 22 44 41 44 14 0 25 -5 25 -11 0 -6 8 -4 17 6 21 21 43 22 43 2z m85
-116 c6 -19 8 -19 24 -5 15 14 20 14 36 2 16 -12 17 -16 6 -30 -7 -9 -17 -13
-22 -10 -21 13 -48 12 -43 -1 6 -16 -12 -29 -21 -15 -3 5 -1 20 5 32 11 22 11
22 -8 -1 -13 -16 -21 -20 -26 -12 -4 6 -12 9 -17 6 -5 -4 -9 -1 -9 6 0 7 -6 5
-13 -6 -8 -10 -19 -15 -25 -11 -6 3 -13 -3 -17 -14 -3 -11 -10 -20 -15 -20 -5
0 -2 20 6 45 16 44 30 52 61 32 6 -4 14 -3 18 2 3 6 12 8 20 4 8 -3 15 0 15 6
0 19 18 12 25 -10z m201 -5 c-6 -15 9 -27 36 -29 20 -2 22 3 8 25 -8 12 -10
12 -16 -3 -3 -9 -10 -14 -15 -11 -6 3 -6 12 0 21 11 20 61 24 61 6 0 -7 -4
-13 -8 -13 -5 0 -8 -10 -8 -22 1 -24 -27 -32 -51 -15 -7 5 -20 7 -28 3 -9 -3
-18 1 -22 9 -5 14 -7 13 -18 -1 -6 -9 -17 -14 -22 -11 -6 4 -14 -3 -18 -16 -4
-13 -8 -17 -11 -10 -3 7 0 29 6 48 8 25 16 34 30 32 11 -2 22 -6 26 -10 3 -3
13 1 21 9 17 16 37 9 29 -12z m204 18 c0 -5 -3 -12 -7 -16 -5 -4 -8 -17 -8
-29 0 -11 -6 -22 -14 -25 -9 -3 -11 1 -7 16 4 12 2 23 -5 28 -8 4 -9 3 -5 -4
10 -17 -3 -35 -17 -24 -14 10 -27 10 -45 -2 -19 -12 -25 -1 -18 30 7 25 10 26
51 21 25 -4 47 -2 50 3 8 12 25 13 25 2z m-660 -685 c0 -10 5 -15 10 -12 12 7
14 51 3 58 -5 2 -3 2 4 1 6 -2 13 2 15 8 2 6 14 12 26 13 11 1 19 -2 17 -6 -3
-4 2 -10 11 -13 8 -3 12 -2 9 3 -3 5 -1 12 4 16 13 7 31 -26 31 -57 0 -19 2
-20 10 -8 9 13 11 13 20 0 5 -8 8 -21 5 -28 -3 -8 -5 -20 -5 -28 0 -8 -4 -14
-10 -14 -5 0 -10 12 -10 26 0 14 -4 23 -10 19 -5 -3 -10 -16 -10 -28 0 -18 -2
-19 -10 -7 -6 10 -10 11 -10 3 0 -23 -30 -14 -31 10 l-1 22 -6 -23 c-8 -26
-21 -30 -33 -10 -7 10 -9 10 -9 1 0 -10 -22 -13 -82 -11 -46 1 -64 3 -40 5 28
3 42 9 42 19 0 8 -9 14 -20 14 -11 0 -20 6 -20 13 0 8 -4 7 -10 -3 -5 -8 -10
-10 -10 -4 0 5 7 19 15 30 13 16 14 16 9 2 -7 -20 -4 -21 20 -12 9 3 16 13 16
21 0 8 6 13 13 11 6 -3 12 -10 12 -15 0 -6 3 -15 8 -19 13 -14 7 41 -8 60 -14
18 -15 18 -36 -5 -20 -23 -20 -22 1 9 l22 33 24 -38 c13 -21 24 -46 24 -56z
m-597 43 c-3 -3 -8 1 -10 8 -3 6 -9 10 -14 7 -5 -4 -6 1 -3 10 6 14 8 14 19
-2 8 -10 11 -20 8 -23z m837 -16 c0 -8 -4 -12 -10 -9 -5 3 -10 10 -10 16 0 5
5 9 10 9 6 0 10 -7 10 -16z m45 7 c3 -5 2 -12 -3 -15 -5 -3 -9 1 -9 9 0 17 3
19 12 6z m49 -6 c-4 -8 -8 -15 -10 -15 -2 0 -4 7 -4 15 0 8 4 15 10 15 5 0 7
-7 4 -15z m33 -7 c-3 -8 -6 -5 -6 6 -1 11 2 17 5 13 3 -3 4 -12 1 -19z m47 7
c-4 -8 -8 -15 -10 -15 -2 0 -4 7 -4 15 0 8 4 15 10 15 5 0 7 -7 4 -15z m49 -6
c-8 -8 -13 -7 -18 2 -5 8 -4 10 3 5 7 -4 12 -2 12 5 0 7 3 9 7 6 4 -4 2 -12
-4 -18z m57 17 c0 -3 -4 -8 -10 -11 -5 -3 -10 -1 -10 4 0 6 5 11 10 11 6 0 10
-2 10 -4z m50 -4 c0 -13 -12 -22 -22 -16 -10 6 -1 24 13 24 5 0 9 -4 9 -8z
m-313 -44 c-2 -7 3 -18 12 -25 14 -10 12 -11 -9 -9 -34 3 -52 15 -44 28 4 6 9
5 15 -3 6 -11 9 -10 15 4 7 19 18 24 11 5z m-53 -14 c8 -21 8 -21 -9 -21 -8 0
-15 9 -15 19 0 22 16 24 24 2z m122 -1 c11 -15 15 -16 26 -4 11 12 10 13 -4 8
-10 -4 -18 -2 -18 3 0 12 27 13 34 2 9 -14 -11 -34 -30 -30 -10 2 -22 10 -26
18 -5 11 -7 10 -7 -5 -1 -17 -3 -17 -11 -5 -14 22 -12 30 6 30 9 0 23 -8 30
-17z m111 -3 c-1 -21 -17 -29 -17 -9 0 6 -7 9 -15 5 -9 -3 -15 0 -15 9 0 9 10
15 24 15 19 0 24 -5 23 -20z m33 13 c0 -5 -5 -15 -10 -23 -8 -12 -10 -11 -10
8 0 12 5 22 10 22 6 0 10 -3 10 -7z m40 -2 c0 -3 -5 -13 -10 -21 -9 -13 -10
-13 -10 0 0 13 -1 13 -10 0 -11 -16 -13 -10 -5 13 6 13 35 20 35 8z m35 -1 c6
9 10 9 16 -1 13 -21 11 -24 -21 -24 -16 -1 -30 0 -30 1 0 1 3 10 6 19 5 12 9
13 14 5 6 -9 9 -9 15 0z m-224 -119 c7 11 9 9 9 -6 0 -14 3 -16 9 -7 6 11 10
10 19 -1 9 -11 3 -13 -33 -13 -29 0 -45 4 -45 12 0 15 24 25 29 11 2 -5 7 -3
12 4z m157 -1 c6 0 12 -8 12 -17 0 -15 -2 -16 -10 -3 -6 9 -13 11 -17 5 -11
-14 -46 -16 -55 -2 -9 15 12 28 37 22 11 -2 26 -5 33 -5z m-363 -11 c4 -6 4
-13 0 -17 -3 -3 -10 0 -15 8 -7 10 -10 11 -10 3 0 -7 -4 -13 -10 -13 -5 0 -10
7 -10 15 0 17 35 20 45 4z m22 -11 c-3 -8 -6 -5 -6 6 -1 11 2 17 5 13 3 -3 4
-12 1 -19z m47 7 c-4 -8 -8 -15 -10 -15 -2 0 -4 7 -4 15 0 8 4 15 10 15 5 0 7
-7 4 -15z m36 0 c0 -8 -4 -15 -10 -15 -5 0 -10 7 -10 15 0 8 5 15 10 15 6 0
10 -7 10 -15z m44 0 c3 -8 1 -15 -4 -15 -6 0 -10 6 -10 13 0 8 -4 7 -10 -3 -8
-13 -10 -12 -10 3 0 21 26 23 34 2z m136 -6 c0 -5 -4 -9 -10 -9 -5 0 -10 7
-10 16 0 8 5 12 10 9 6 -3 10 -10 10 -16z m124 6 c-6 -16 -24 -21 -24 -7 0 11
11 22 21 22 5 0 6 -7 3 -15z m32 -12 c-10 -10 -19 5 -10 18 6 11 8 11 12 0 2
-7 1 -15 -2 -18z"/>
<path d="M1850 1695 c0 -8 5 -15 10 -15 6 0 10 7 10 15 0 8 -4 15 -10 15 -5 0
-10 -7 -10 -15z"/>
<path d="M1298 1683 c7 -3 16 -2 19 1 4 3 -2 6 -13 5 -11 0 -14 -3 -6 -6z"/>
<path d="M1577 1713 c-12 -12 -7 -33 8 -33 17 0 19 9 7 28 -5 7 -11 9 -15 5z"/>
<path d="M1311 1073 c-10 -26 -10 -27 4 -9 8 11 15 23 15 28 0 15 -7 8 -19
-19z"/>
<path d="M1750 1067 c0 -8 7 -20 15 -27 12 -10 15 -10 15 3 0 8 -7 20 -15 27
-12 10 -15 10 -15 -3z"/>
<path d="M1921 1044 c0 -11 3 -14 6 -6 3 7 2 16 -1 19 -3 4 -6 -2 -5 -13z"/>
<path d="M1925 950 c-3 -5 -1 -10 4 -10 6 0 11 5 11 10 0 6 -2 10 -4 10 -3 0
-8 -4 -11 -10z"/>
<path d="M1622 315 c0 -16 2 -22 5 -12 2 9 2 23 0 30 -3 6 -5 -1 -5 -18z"/>
<path d="M1516 263 c-13 -13 -5 -23 19 -23 29 0 34 25 6 27 -10 1 -22 -1 -25
-4z"/>
<path d="M1631 254 c0 -11 3 -14 6 -6 3 7 2 16 -1 19 -3 4 -6 -2 -5 -13z"/>
<path d="M761 2195 c56 -59 61 -63 53 -40 -4 8 -10 15 -14 15 -5 0 -11 14 -15
30 -4 17 -10 28 -15 25 -4 -3 -10 2 -14 10 -3 8 -15 15 -26 15 -18 0 -13 -9
31 -55z"/>
<path d="M1101 2073 c7 -10 15 -20 16 -22 2 -2 3 5 3 17 0 14 -6 22 -16 22
-14 0 -15 -3 -3 -17z"/>
<path d="M1132 2070 c0 -14 2 -19 5 -12 2 6 2 18 0 25 -3 6 -5 1 -5 -13z"/>
<path d="M930 2076 c0 -2 8 -10 18 -17 15 -13 16 -12 3 4 -13 16 -21 21 -21
13z"/>
<path d="M277 1151 c-2 -10 -1 -25 4 -32 14 -22 30 10 18 33 -12 23 -15 23
-22 -1z"/>
<path d="M360 1066 c0 -7 -15 -21 -32 -30 -21 -10 -27 -16 -15 -16 10 0 32 7
48 16 25 12 28 18 18 30 -14 18 -19 18 -19 0z"/>
<path d="M690 970 c0 -5 9 -26 21 -47 11 -21 14 -30 6 -20 -32 38 -23 2 11
-43 1 -2 7 2 12 10 13 20 13 83 0 75 -6 -3 -13 0 -16 9 -6 17 -34 30 -34 16z"/>
<path d="M771 775 c15 -53 38 -103 39 -82 0 10 7 20 15 23 11 5 8 13 -15 37
-17 18 -30 38 -30 45 0 6 -4 12 -9 12 -6 0 -6 -14 0 -35z"/>
<path d="M236 601 c-11 -4 -15 -10 -10 -13 5 -4 18 0 29 8 20 15 12 17 -19 5z"/>
<path d="M160 569 c-13 -6 -35 -7 -47 -4 -35 8 -112 -35 -113 -63 0 -19 4 -22
28 -16 26 7 141 62 172 83 13 10 13 11 0 10 -8 0 -26 -5 -40 -10z"/>
<path d="M0 550 c0 -5 7 -10 16 -10 8 0 12 5 9 10 -3 6 -10 10 -16 10 -5 0 -9
-4 -9 -10z"/>
<path d="M38 423 c7 -3 16 -2 19 1 4 3 -2 6 -13 5 -11 0 -14 -3 -6 -6z"/>
<path d="M0 405 c0 -9 6 -12 15 -9 8 4 15 7 15 9 0 2 -7 5 -15 9 -9 3 -15 0
-15 -9z"/>
<path d="M0 285 c0 -11 7 -15 23 -13 12 2 22 8 22 13 0 6 -10 11 -22 13 -16 2
-23 -2 -23 -13z"/>
</g>
</svg>
